<!DOCTYPE html>
<html>
<head>
  <meta charset="utf-8">
  <meta name="viewport" content="width=device-width, initial-scale=1">
  <link rel="stylesheet" href="https://maxcdn.bootstrapcdn.com/bootstrap/3.4.1/css/bootstrap.min.css">
  <link rel="stylesheet" href="/formatos.css">
  <script src="https://ajax.googleapis.com/ajax/libs/jquery/3.5.1/jquery.min.js"></script>
  <script src="https://maxcdn.bootstrapcdn.com/bootstrap/3.4.1/js/bootstrap.min.js"></script>
  <title>Ejercicio 1</title>
</head>

<body>
  <body>
    <div class="container-fluid">
      <div class="row">
          <div class="col-sm-3">
          <img src="../logo.jpg" class="img-thumbnail" usemap="#workmap" alt="UOC">
          <map name="workmap">
            <area shape="rect" coords="1,1,250,63" alt="UOC" href="https://www.uoc.edu/portal/es/index.html">
          </map>
        </div>
          <h1 class="title">Prueba de Evaluación Continuada 2 (PEC2)</h1>
        </div>
    </div>
  
   <div class="container-fluid">
    <button type="button" class="btn btn-secondary float-left"><a href="../index.html">Home</a></button>
   </div>

   <hr>
  
  <div class="container-fluid">
  <div style="text-align:center"> 
  <div class="col-sm-6">
    <div class="row">
      <p><strong>Clip 1</strong></p>
      <video width="320" height="240" controls>
        <source src="../clip.mp4" type="video/mp4">
    </div>
    <p><small>
        Format: MPEG-4/AVC   AAC LC<br>
        Resolution: 640X352 pixels<br>
        File size: 5.22 MiB<br>
        Overall bit rate: 2119 kb/s<br>
        Format settings: CABAC / 1 Ref Frames<br>
        Format settings, Reference frames: 1 frame<br>
        Duration: 20 s 659 ms<br>
        Bit rate  : 2019 kb/s<br>
        Frame rate: 29.970 (29970/1000) FPS<br>
        Bits/(Pixel*Frame): 0.299<br>
        Stream size: 4.97 MiB (95%)<br>
    </small></p>
    </div>

    <div class="col-sm-6">
      <div class="row">
        <p><strong>Clip 2</strong></p>
        <video width="320" height="240" controls>
          <source src="../clip3.mp4" type="video/mp4">
      </div>
      <p><small>
          Format: MPEG-4/AVC   AAC LC<br>
          Resolution: 640X352 pixels<br>
          File size: 5.22 MiB<br>
          Overall bit rate: 230 kb/s<br>
          Format settings: CABAC / 4 Ref Frames<br>
          Format settings, Reference frames: 4 frames<br>
          Duration: 20 s 668 ms<br>
          Bit rate: 98.8 kb/s<br>
          Bits/(Pixel*Frame): 0.015<br>
          Stream size: 249 KiB (43%)<br>
        </small></p>
      </div>
  
  </div>
 
</div>

<br>
 
<div class="container-fluid">
  <div class="panel panel-default">
     <div style="text-align:center" class="panel-body">Despues de haber reducido el Bitrate del <strong>95%</strong> (clip 1) al <strong>43%</strong> (Clip 2) se nota una mejoria al momento de la carga de video en pagina pero la perdida en calidad de la imagen se afecta notoriamente por lo que se debe hacer pruebas Ux para consegir la mejor experiencia de usuario</div>
</div>

</body>
</html>
